<?xml version="1.0" encoding="utf-8"?>
<!-- Generator: Adobe Illustrator 24.0.1, SVG Export Plug-In . SVG Version: 6.00 Build 0)  -->
<svg version="1.1" id="a_ver" xmlns="http://www.w3.org/2000/svg" xmlns:xlink="http://www.w3.org/1999/xlink" x="0px" y="0px"
	 viewBox="0 0 595.28 324.64" style="enable-background:new 0 0 595.28 324.64;" xml:space="preserve">
<style type="text/css">
	.st0{fill:#B22A4A;}
	.st1{fill:#3A2C60;}
	.st2{fill:#B3265A;}
	.st3{fill:none;}
	.st4{fill:#9299A4;}
	.st5{fill:#EC6E2E;}
	.st6{fill:#F3CDC2;}
	.st7{fill:#977760;}
	.st8{fill:#AD7160;}
	.st9{fill:#A4D0E1;}
	.st10{fill:#8AAEB7;}
	.st11{fill:#E9CFB1;}
	.st12{fill:#323436;}
	.st13{fill:#FDF05F;}
	.st14{fill:#FFFFFF;}
	.st15{fill:#DAE0E2;}
	.st16{fill:#F4D0AE;}
	.st17{fill:#2A3953;}
	.st18{fill:none;stroke:#FFFFFF;stroke-width:2;stroke-miterlimit:10;}
	.st19{fill:#F0F0F3;}
	.st20{fill:#525051;}
	.st21{fill:#D9A989;}
	.st22{fill:#5B4185;}
	.st23{fill:#90C9E0;}
	.st24{fill:#D5B58D;}
	.st25{fill:#99BEA9;}
	.st26{fill:#5B2F1E;stroke:#84462D;stroke-width:2;stroke-miterlimit:10;}
	.st27{fill:none;stroke:#84462D;stroke-width:2;stroke-miterlimit:10;}
	.st28{fill:#61666E;}
	.st29{fill:#724A41;}
	.st30{fill:#BDE6F6;}
	.st31{fill:#969899;}
	.st32{fill:#CCCCCB;}
	.st33{fill:#2F170F;}
	.st34{fill:#D46195;}
	.st35{fill:#282321;}
	.st36{fill:#1E1D1E;}
	.st37{fill:#62808A;}
	.st38{fill:#597E89;}
	.st39{fill:#EF4775;}
	.st40{fill:#2B2A2B;}
	.st41{fill:#BCE5F1;}
	.st42{fill:#57739E;}
	.st43{fill:#9882BC;}
	.st44{fill:#C39F86;}
</style>
<path class="st0" d="M503.56,138.66c0.2-0.12,0.4-0.22,0.62-0.29c1.38-0.44,6.42-1.71,8.86-0.38c2.08,1.13,7.34-0.02,8.86-0.53
	c0.29-0.1,0.56-0.24,0.81-0.42c2.1-1.54,12.34-9.64,15.45-23c3.46-14.91,1.68-21.17,1.68-21.17s-1.37-12.48-13.92-18.09
	c-0.15-0.07-0.31-0.12-0.47-0.17c-1.53-0.42-9.81-2.42-15.18,2.26c-5.11,4.45-12.04,0.58-13.88-0.59c-0.35-0.22-0.72-0.37-1.12-0.44
	c-2.07-0.36-8.68-1.04-14.67,3.41c-7.22,5.37-8.01,13.42-8.01,13.42s-1.8,11.43,3.15,22.86c4.96,11.43,10.59,17.95,13.86,20.8
	C492.79,139.13,499.12,141.28,503.56,138.66z"/>
<path class="st1" d="M350.92,166.12c0,0,39.96,0.13,69.68-7.88c0,0,1.71-7.42-1.2-16.81c0,0-45.58,0.79-70.68,7.62
	C348.71,149.04,346.9,157.39,350.92,166.12z"/>
<path class="st2" d="M261.28,113.41c0,0-39.69-26.37-38.77-53.27c0.92-26.9,18.33-32.97,18.33-32.97s24.79-13.05,39.69,8.84
	c0,0,10.55-16.69,32.44-12.7s25.58,20.87,25.58,20.87s5.27,13.98-1.19,28.22s-25.32,37.32-55.52,56.31L261.28,113.41z"/>
<g>
	<line class="st3" x1="60.25" y1="315.18" x2="93.48" y2="319.14"/>
</g>
<path class="st4" d="M125.84,324.09c0,0-2.37-13.01-2.11-14.33c0.08-0.39-54.86-7.12-54.86-7.12s-1.32,20.21,0,21.45
	S125.84,324.09,125.84,324.09z"/>
<path class="st5" d="M79.36,154.29c0,0-29.47-16.62-29.67-51.23c-0.2-34.62,33.82-51.43,33.82-51.43s29.67-14.04,57.36,6.73
	s22.55,53.01,22.55,53.01s-1.78,36.37-45.1,49.83C118.32,161.2,97.03,166.68,79.36,154.29z"/>
<path class="st6" d="M144.49,70.89c0.3,0.4-0.24,0.88-0.61,0.54c-12.81-11.85-23.91-14.2-23.91-14.2s-25.53-8.97-48.53,16.35
	c-18.91,20.83-13.05,46.64-10.37,55.15c0.14,0.46-0.48,0.74-0.73,0.34c-2.75-4.32-7.73-13.61-6.96-23.32
	c1.05-13.32,4.88-22.42,4.88-22.42s4.88-13.45,22.29-24.92s35.74-6.99,35.74-6.99s6.86,0.92,12,3.96c0,0,5.41,2.77,9.1,6.73
	C139.4,64.27,142.29,67.98,144.49,70.89z"/>
<g>
	<path class="st7" d="M78.55,303.83c0,0-1.07-16.36-1.38-24.14c-0.31-7.78,7.24-74.47,7.24-74.47s4.99,4.72,21.66,1.68
		c0,0,1.25,76.22,1.38,72.92c0.13-3.3,4.3,28.2,4.3,28.2L78.55,303.83z"/>
</g>
<path class="st7" d="M106.06,185.07v-6.8c7.32-5.97,12.26-16.93,12.26-16.93c-15.63-1.6-23.09,0-23.09,0
	c-1.14-4.19-5.87-6.76-5.87-6.76v-5.18c0,0,8.79-0.4,9.78-2.59c0.99-2.19-1.58-7.96-1.58-7.96s-15.03,0-15.82,3.38
	c-0.79,3.38-2.37,12.14-2.37,12.14s6.53,20.31,7.05,21.85s0,7.59,0,7.59S93.08,187.89,106.06,185.07z"/>
<path class="st8" d="M181.82,324.08c0,0,6.07-36.71,7.12-42.26c1.05-5.55,1.32-65.58,1.32-65.58s0.37-0.02,1.05-0.07
	c3.22-0.24,13.31-1.09,22.68-2.83l10.55,68.49l-1.05,42.26H181.82z"/>
<path class="st9" d="M205.2,205.98c0,0-6.5,1.71-12.79,1.81c-6.29,0.1-20.11-2.54-25.03-7.75l7.52-49.91c0,0,9.64-4.75,2.74-15.23
	l0.75-9.16c0,0,5.88-7.25,15.87-10.48l0.89-7.32c0,0,4.1,1.52,12.31,1.32l-0.82,7.32c0,0,7.87,7.12,10.26,13.85l-0.48,10.35
	c0,0-8.48,5.41-3.35,14.7l0.03,2.39L205.2,205.98z"/>
<path class="st10" d="M177.64,134.9c0,0,14.64,8.97,38.78,5.87c0,0-8.48,4.22-3.35,14.7c0,0-20.86,3.43-38.16-5.34
	C174.9,150.13,184,146.77,177.64,134.9z"/>
<path class="st11" d="M191.51,207.54l-0.2,8.62c0,0,15.13-1.24,21.07-2.81c0,0-2.18-9.05-2.47-20.37c0,0,8.51-11.71,11.57-19.39
	c0,0,1.19-4.63,0-10.33c0,0-3.66-4.13-9.1-5.22c0,0-9.07-2.23-6.76,4.33c0,0,2.04,2.43,4.02,3.87c1.98,1.44-5.8,39.5-5.8,39.5
	S198.7,207.77,191.51,207.54z"/>
<path class="st12" d="M207.46,109.25l0.5-5.16l-12.16-1.48l-0.65,5.32C195.15,107.93,200.09,109.76,207.46,109.25z"/>
<polyline class="st12" points="200.51,103.18 200.82,99.47 204.39,99.69 204.31,103.65 "/>
<path class="st13" d="M177.32,159.71c0,0,12.23,8.58,30.12,5.49l-4.66,28.59c0,0-19.39,3.61-29.81-7.16L177.32,159.71z"/>
<polygon class="st14" points="186.19,169.71 195.66,171.82 190.2,178.29 194.94,178.29 188.37,187.06 188.1,181.85 184.27,182.11 
	186.32,178.39 182.36,178.39 "/>
<path class="st15" d="M244.67,324.08l-1.58-71.69c0,0,9.23-70.11,12.4-94.53c0,0,27.55,4.28,44.04,2.73l-4.7,95.28
	c0,0,10.51,56.7,12.09,68.22H244.67z"/>
<path class="st16" d="M265.95,153.02l1.13-7.32c0,0-7.12-13.13-8.18-19.51c-1.05-6.38,2.37-12.74,2.37-12.74l20.57,15.36l8.7-6.09
	c0,0,1.85-4.24,1.32-7.15l-8.97-6.2l5.01-5.72l16.35,5.72l1.32,18.97c0,0-6.35,11.31-13.71,19.02v7.42
	C291.88,154.77,276.42,154.45,265.95,153.02z"/>
<path class="st17" d="M106.06,208.1c-13.88,2.5-21.66-1.79-21.66-1.79l-1.48-1.02c0,0,0.99-14.51,2.24-22.26
	c0,0,7.52,4.96,21.63,1.57l0.66,22.23C107.44,206.83,107.62,207.82,106.06,208.1z"/>
<polyline class="st18" points="231.04,68.78 248.57,68.78 258.2,40.83 269.94,81.71 276.27,54.15 284.61,87.77 295.98,36.61 
	301.45,64.56 303.96,54.15 307.26,69.05 332.05,68.65 "/>
<path class="st19" d="M262.89,160.58l1.3-8.8c0,0,15.03,3.65,27.69,2.24v8.71C291.88,162.74,282.16,163.2,262.89,160.58z"/>
<path class="st20" d="M364.49,324.08c0,0,4.52-19.2,11.7-22.63c0,0-5.05-7.12,0-45.1s2.39-61.98,2.39-61.98l25.8-1.32
	c0,0,21.54,59.87,26.33,78.59c4.79,18.73,1.86,30.07,1.86,30.07s7.71,10.45,7.45,22.37H364.49z"/>
<path class="st21" d="M380.5,194.28c0,0-0.49-8.24-3.26-11.21c-2.77-2.97-9.4-11.27-9.4-11.27s-8.01-11.87-4.55-27.49
	c0,0,1.29-4.55,10.78-5.44c9.49-0.89,23.54-0.89,23.54-0.89s5.64,0.69,11.67,13.35c6.03,12.66-2.87,27-2.87,27l-3.76,6.33
	c0,0-0.99,1.88,0,8.41L380.5,194.28z"/>
<path class="st22" d="M349.26,149.04l-1.19-0.4c0,0-0.1-12.76-0.79-15.73c-0.69-2.97-10.38-11.67-16.12,2.37c0,0-0.1-6.34-7.81-6.09
	c-7.71,0.25-8.41,8.16-8.41,8.16l1.38,14.24c0,0-3.76,0.69-3.86,3.96s0.59,11.67,0.59,11.67s0.3,2.18,5.44,2.77l1.58,16.22
	c0,0,1.19,5.34,7.32,5.24c6.13-0.1,9.2-7.02,9.2-7.02s1.19,5.24,7.52,4.95c6.33-0.3,8.11-5.14,8.11-5.14l-0.79-18.13
	C351.43,166.12,347.38,158.84,349.26,149.04z"/>
<path class="st22" d="M418.88,141.43l-1.48-17.31c0,0,0.4-6.43,6.73-6.43c9.2,0,8.6,5.14,8.6,5.14s1.19-6.63,8.6-6.63
	c7.42,0,8.11,7.52,8.11,7.52s1.19,8.9,0.69,13.15c0,0,5.54,0,5.74,3.46c0.2,3.46,0.59,12.16,0.59,12.16s0.3,1.38-3.76,2.37
	l1.19,18.4c0,0-0.49,4.25-7.02,4.35c-6.53,0.1-8.51-5.74-8.51-5.74s-0.69,7.71-7.91,7.81c-7.22,0.1-8.51-5.04-8.51-5.04l-1.88-16.42
	C420.07,158.24,422.44,152.6,418.88,141.43z"/>
<path class="st23" d="M460.85,324.08l14.24-71.69c0,0,7.38-65.67,9.76-82.02h-2.9l-0.26-6.07c0,0,20.31,0,30.33,0v5.54l-3.43,0.26
	l10.02,79.91l-3.43,74.06H460.85z"/>
<path class="st24" d="M489.05,164.31c-0.56,0-0.99-0.53-0.86-1.08c0.29-1.31,0.69-3.55,0.42-5.15
	c-0.38-2.28-11.93-15.88-13.07-17.21c-0.07-0.08-0.12-0.16-0.15-0.26c-0.15-0.4-0.49-1.52,0.07-2.65c0.69-1.4,2.55-6.5,6.47-11.81
	c3.92-5.3,6.77,0,6.77,0s1.47,2.5,0,5.1c-1.47,2.6-0.28,2.9-0.28,2.9s1.86,2.18,8.88,4.27c0.08,0.02,0.16,0.04,0.23,0.04
	c0.94,0.02,7.26,0.11,10.88-1.42c0.6-0.25,1.26,0.2,1.22,0.86c-0.17,3.03-0.98,9.96-4.76,16c-0.03,0.04-0.05,0.08-0.07,0.13
	c-0.1,0.27-0.47,1.27-0.47,2.13c0,0.78,0.06,5.29,0.09,7.24c0.01,0.5-0.39,0.9-0.88,0.9H489.05z"/>
<path class="st25" d="M504.63,75.56c0,0-6.4,1.78-10.95-5.54s-5.8-12.13-5.8-12.13s11.01,0.73,14.57,4.48
	c3.56,3.76,4.48,7.71,4.48,7.71s0.66,3.23,0,4.22C506.28,75.3,504.63,75.56,504.63,75.56z"/>
<line class="st26" x1="106.74" y1="46.99" x2="106.74" y2="160.5"/>
<path class="st27" d="M163.8,104.7c0,0-47.98,16.87-114.08,0"/>
<path class="st27" d="M150.44,67.05c0,0-49.54,39.18,2.16,71.73"/>
<path class="st27" d="M62.8,139.49c0,0,45.27-37.3,0-71.06"/>
<polygon class="st28" points="123.73,309.76 111.2,303.97 111.75,308.03 "/>
<polygon class="st28" points="78.34,300.66 68.88,302.64 78.55,303.83 "/>
<polygon class="st29" points="191.31,215.16 190.26,216.24 191.31,216.16 "/>
<polygon class="st29" points="212.22,212.63 213.99,213.33 212.44,213.61 "/>
<polygon class="st11" points="212.38,213.35 212.44,213.62 205.09,214.77 200.01,215.4 193.74,216.03 192.14,216.16 "/>
<path class="st30" d="M180,130.9l0.27-3.81c0.02-0.32,0.16-0.62,0.4-0.84c1.41-1.31,6.72-5.92,12.65-7.37
	c0.7-0.17,1.41,0.27,1.56,0.97l0.02,0.09c0.14,0.63-0.21,1.27-0.82,1.48c-2.33,0.81-7.88,2.94-10.74,5.59
	c-0.22,0.2-0.35,0.48-0.39,0.78l-0.4,3.36c-0.08,0.64-0.62,1.13-1.27,1.13l0,0C180.54,132.26,179.95,131.64,180,130.9z"/>
<polygon class="st31" points="255.48,157.86 263.5,156.39 263.13,158.9 "/>
<path class="st31" d="M291.88,157.86l7.65,2.73c0,0-6.59,0.52-7.65,0.34V157.86z"/>
<polygon class="st32" points="264.18,151.78 266.25,151.07 266.25,152.23 "/>
<path class="st33" d="M98.3,147.64l-5.69,3.88l1.85,6l6.85,3.2l-6.08,0.62c0,0-1.28-4.61-5.87-6.76v-5.18
	C89.36,149.41,94.83,149.37,98.3,147.64z"/>
<path class="st34" d="M311.45,26.64c6.17,1.36,19.85,5.91,22.9,19.71c0.32,1.44-0.63,2.86-2.09,3.06l-0.86,0.12
	c-1.17,0.17-2.31-0.5-2.71-1.62c-1.36-3.78-5.73-12.09-18.39-15.32c-1.11-0.28-1.89-1.28-1.89-2.43V29.1
	C308.41,27.5,309.88,26.3,311.45,26.64z"/>
<polygon class="st35" points="402.45,191.5 404.38,193.05 402.66,193.05 "/>
<path class="st36" d="M378.58,194.37l1.8-1.47c0,0,0.14,0.89,0.12,1.37L378.58,194.37z"/>
<path class="st37" d="M481.69,164.31l6.48-0.98c0,0-0.1,0.8,0.75,0.97L481.69,164.31z"/>
<path class="st38" d="M504.42,163.19l7.6,1.12l-8.42,0C503.59,164.3,504.43,164.3,504.42,163.19z"/>
<path class="st39" d="M536.14,91.19c0.29,0.34,0.83,0.03,0.68-0.4c-0.92-2.55-3.13-7.11-7.99-10.6c-4.74-3.4-9.88-3.16-12.8-2.62
	c-0.45,0.08-0.42,0.74,0.03,0.79c2.72,0.33,7.29,1.33,11.18,4.29C531.28,85.73,534.48,89.23,536.14,91.19z"/>
<path class="st40" d="M367.55,321.63c0,0,1.78-13.25,12.07-19.78c0,0-7.32-11.67-0.79-40.95c0,0-0.4,24.53,7.32,42.13
	C386.15,303.03,371.31,311.14,367.55,321.63z"/>
<polygon class="st41" points="512.15,320.64 510.76,250.22 509.18,196.02 515.71,250.42 "/>
<path class="st42" d="M85.29,195.43l0.79-9.53c0,0,1.91,2.18,6.63,1.45c0,0-2.6,1.09-3.71,1.12c-1.1,0.03-1.99-0.56-1.99-0.56
	S86.94,190.68,85.29,195.43z"/>
<path class="st43" d="M319.09,149.42l-1.27-12.73c-0.01-0.1-0.01-0.2,0-0.31c0.07-0.64,0.47-2.77,2.8-2.89
	c1.09-0.06,2.05,0.85,1.98,1.94c0,0.01,0,0.03,0,0.04c-0.05,0.63-0.52,1.15-1.14,1.3l0,0c-0.72,0.17-1.2,0.84-1.13,1.58l1.13,11.08
	C321.47,149.42,320.28,151.99,319.09,149.42z"/>
<polygon class="st44" points="185.24,322.71 196.12,282.16 193.35,249.52 191.31,280.97 "/>
</svg>
